<?xml version="1.0" standalone="no"?>
<!DOCTYPE svg PUBLIC "-//W3C//DTD SVG 20010904//EN"
 "http://www.w3.org/TR/2001/REC-SVG-20010904/DTD/svg10.dtd">
<svg version="1.0" xmlns="http://www.w3.org/2000/svg"
 width="700.000000pt" height="700.000000pt" viewBox="0 0 700.000000 700.000000"
 preserveAspectRatio="xMidYMid meet">
<metadata>
Created by potrace 1.14, written by Peter Selinger 2001-2017
</metadata>
<g transform="translate(0.000000,700.000000) scale(0.100000,-0.100000)"
fill="#000000" stroke="none">
<path d="M3347 6984 c-1 -1 -42 -5 -92 -8 -49 -4 -101 -8 -115 -10 -14 -3 -45
-7 -70 -10 -86 -11 -282 -55 -385 -86 -38 -12 -83 -25 -100 -29 -55 -15 -218
-83 -340 -140 -193 -92 -393 -220 -580 -370 -154 -123 -476 -465 -461 -490 3
-5 79 -64 168 -132 90 -68 183 -138 207 -157 24 -18 47 -31 51 -30 4 2 31 32
61 68 328 400 781 679 1289 794 65 15 79 18 155 30 96 16 132 18 341 21 177 2
245 -1 345 -16 221 -34 406 -85 589 -161 100 -42 246 -117 292 -149 14 -11 29
-19 32 -19 10 0 177 -120 236 -169 133 -111 252 -230 342 -343 38 -48 65 -75
72 -70 298 217 424 317 416 331 -16 29 -141 175 -221 258 -346 357 -758 613
-1220 757 -107 33 -249 69 -322 81 -18 3 -45 8 -62 11 -16 3 -43 7 -60 10 -16
2 -46 6 -65 9 -95 14 -492 29 -503 19z"/>
<path d="M406 5448 c-86 -221 -145 -408 -162 -513 -3 -22 -8 -43 -10 -46 -5
-8 -31 -186 -40 -274 -9 -84 -8 -305 1 -372 13 -103 17 -121 41 -212 14 -52
37 -117 50 -145 13 -28 23 -55 20 -61 -2 -6 -27 -10 -57 -8 -221 9 -233 8
-233 -12 0 -18 14 -137 19 -175 2 -8 6 -42 9 -75 4 -33 18 -116 32 -185 83
-424 256 -794 478 -1026 l84 -88 -37 -19 c-102 -55 -248 -149 -350 -226 -63
-47 -126 -95 -141 -106 -14 -11 -45 -35 -67 -53 l-41 -32 94 -92 c130 -127
155 -149 269 -241 270 -218 617 -398 872 -452 37 -8 71 -15 75 -15 4 0 -21
-55 -55 -123 -75 -147 -88 -179 -161 -374 -57 -154 -62 -172 -48 -174 8 -1 18
-3 93 -18 30 -6 66 -14 80 -16 13 -3 35 -7 49 -10 82 -19 249 -45 325 -52 115
-10 418 -10 512 0 199 21 429 86 572 163 46 25 84 44 85 42 1 -2 18 -28 37
-58 43 -70 61 -92 129 -159 59 -58 175 -139 231 -160 19 -7 43 -17 54 -21 88
-36 146 -45 285 -45 125 1 164 7 254 37 181 60 328 176 434 341 45 71 49 74
67 60 28 -21 201 -103 217 -103 8 0 18 -4 24 -9 15 -14 172 -54 279 -70 33 -6
78 -13 100 -17 74 -12 438 -11 550 2 155 17 176 21 362 60 91 19 168 34 170
34 6 0 -7 60 -17 80 -5 8 -18 42 -30 75 -12 33 -26 69 -30 80 -4 11 -23 57
-40 102 -18 46 -61 139 -95 207 l-63 125 56 11 c248 48 586 215 857 424 115
89 106 81 324 288 l81 77 -146 113 c-136 106 -287 211 -344 242 -32 17 -144
79 -147 81 -1 0 33 37 76 82 194 201 344 487 445 848 14 50 27 101 30 115 31
157 37 194 51 308 2 20 9 74 16 120 6 46 9 86 5 89 -6 6 -166 5 -258 -1 l-37
-3 16 36 c32 76 72 198 82 256 6 33 14 71 17 85 10 43 13 382 4 455 -13 102
-19 147 -25 175 -3 14 -8 41 -11 60 -12 71 -64 268 -93 352 -26 76 -130 347
-137 356 -4 6 -328 -180 -415 -239 -371 -249 -651 -573 -748 -864 -43 -129
-55 -211 -55 -355 1 -207 42 -397 131 -606 l34 -82 -63 -63 c-35 -35 -77 -82
-94 -104 -16 -22 -31 -42 -35 -45 -12 -11 -79 -129 -108 -191 -30 -66 -91
-243 -91 -266 0 -28 -66 -205 -107 -286 -110 -220 -267 -393 -487 -535 -272
-176 -704 -307 -1011 -306 -332 1 -787 152 -1064 351 -235 169 -420 419 -502
678 -12 39 -27 81 -35 95 -7 14 -25 65 -39 115 -54 180 -162 365 -286 489
l-58 58 38 92 c210 499 174 923 -111 1308 -104 140 -384 406 -510 483 -9 6
-47 31 -85 56 -62 42 -367 219 -377 219 -2 0 -29 -64 -60 -142z m447 -778
c128 -120 236 -280 268 -395 14 -52 18 -215 6 -275 -4 -19 -9 -48 -12 -65 -6
-27 -54 -176 -60 -183 -6 -6 -124 118 -169 178 -121 162 -160 301 -151 545 2
77 7 154 10 170 3 17 7 41 9 55 3 14 5 31 5 39 1 17 12 9 94 -69z m5394 68 c1
-7 6 -48 13 -90 34 -234 8 -470 -67 -606 -66 -119 -228 -305 -244 -280 -12 18
-57 164 -66 213 -15 76 -9 266 9 325 33 105 154 274 271 378 22 20 48 45 56
55 18 20 27 22 28 5z m-5484 -1540 c9 -5 17 -6 17 -4 0 7 150 -48 224 -83 125
-58 218 -145 283 -266 42 -78 112 -338 94 -349 -8 -5 -183 53 -195 65 -6 5
-18 9 -28 9 -10 0 -18 5 -18 10 0 6 -5 10 -11 10 -20 0 -143 87 -180 127 -44
48 -96 120 -138 192 -35 58 -114 239 -125 283 -6 27 -5 27 26 21 18 -3 41 -10
51 -15z m5536 -55 c-114 -299 -247 -465 -447 -563 -60 -30 -226 -90 -247 -90
-6 0 5 67 26 159 24 104 82 229 140 299 50 61 145 128 246 174 79 35 254 92
300 97 7 1 0 -29 -18 -76z m-4801 -1233 c72 -15 220 -86 294 -142 76 -58 118
-96 118 -107 0 -15 -173 -81 -250 -96 -143 -26 -273 -15 -423 37 -94 32 -318
146 -332 168 -5 8 147 77 230 104 138 44 262 56 363 36z m4327 -24 c88 -26
251 -91 269 -107 16 -14 -202 -132 -329 -177 -205 -74 -399 -66 -612 24 -35
14 -63 30 -63 34 0 21 167 148 250 190 25 13 77 34 115 46 98 31 243 27 370
-10z m-3166 -640 c9 -3 32 -8 51 -11 19 -3 36 -7 37 -9 9 -9 -85 -126 -163
-203 -111 -109 -209 -163 -359 -198 -5 -1 -21 -5 -35 -8 -71 -18 -370 -42
-370 -30 0 11 98 149 149 210 117 138 251 223 393 247 68 12 259 13 297 2z
m2027 -11 c119 -34 194 -82 300 -192 74 -76 200 -248 187 -256 -5 -2 -30 -3
-58 -2 -293 15 -461 56 -592 146 -88 61 -222 201 -261 275 -10 20 -8 22 21 28
18 4 52 10 77 13 25 3 46 7 48 8 11 10 229 -6 278 -20z m-1072 -165 c63 -30
123 -101 142 -168 78 -267 -254 -463 -451 -267 -144 145 -78 401 116 453 55
14 144 6 193 -18z"/>
<path d="M3225 5207 c-2 -12 -6 -42 -9 -67 -7 -73 -24 -129 -69 -220 -32 -66
-60 -103 -122 -166 -119 -121 -252 -186 -410 -202 l-70 -7 0 -270 0 -270 55 1
c55 1 138 9 175 18 11 2 41 9 66 15 103 24 330 122 373 162 6 5 13 9 17 9 3 0
6 -309 7 -687 0 -379 1 -698 1 -711 l1 -22 271 2 272 3 0 1215 0 1215 -276 2
-277 3 -5 -23z"/>
</g>
</svg>
