<?xml version="1.0" standalone="no"?>
<!DOCTYPE svg PUBLIC "-//W3C//DTD SVG 20010904//EN"
 "http://www.w3.org/TR/2001/REC-SVG-20010904/DTD/svg10.dtd">
<svg version="1.0" xmlns="http://www.w3.org/2000/svg"
 width="303.000000pt" height="303.000000pt" viewBox="0 0 303.000000 303.000000"
 preserveAspectRatio="xMidYMid meet">
<metadata>
Created by potrace 1.14, written by Peter Selinger 2001-2017
</metadata>
<g transform="translate(0.000000,303.000000) scale(0.100000,-0.100000)"
fill="#000000" stroke="none">
<path d="M0 1515 l0 -1515 1513 0 1512 0 -1 338 c-1 185 -2 340 -3 343 0 4
-72 7 -158 8 -87 1 -209 3 -271 4 -69 1 -112 -2 -113 -8 0 -5 -1 -39 -2 -75
l-2 -64 -655 1 c-831 3 -788 3 -835 2 -22 0 -85 0 -140 1 -55 1 -104 1 -110 0
-5 -1 -50 -2 -100 -1 l-90 1 1 960 c0 528 3 962 5 964 3 3 255 6 561 7 l556 2
11 51 c6 28 13 60 16 71 37 161 95 419 95 422 0 2 -403 3 -895 3 l-895 0 0
-1515z"/>
<path d="M1975 2855 c-84 -371 -83 -366 -70 -371 6 -3 138 -6 293 -7 l282 -2
0 -730 c0 -634 3 -878 9 -921 0 -7 58 -11 164 -13 89 -1 208 -3 265 -4 56 -1
103 0 103 3 4 17 3 2210 -1 2211 -3 1 -230 2 -506 3 l-501 1 -38 -170z"/>
</g>
</svg>
